<svg xmlns="http://www.w3.org/2000/svg" version="1.1" xmlns:xlink="http://www.w3.org/1999/xlink" xmlns:svgjs="http://svgjs.dev/svgjs" width="1440" height="560" preserveAspectRatio="none" viewBox="0 0 1440 560"><g mask="url(&quot;#SvgjsMask2930&quot;)" fill="none"><rect width="1440" height="560" x="0" y="0" fill="rgba(255, 255, 255, 1)"></rect><use xlink:href="#SvgjsG2938" transform="translate(0, 0)" fill="rgba(8, 207, 51, 0.34)"></use><use xlink:href="#SvgjsG2938" transform="translate(975, 0)" fill="rgba(207, 8, 8, 0.46)"></use></g><defs><mask id="SvgjsMask2930"><rect width="1440" height="560" fill="#ffffff"></rect></mask><g id="SvgjsG2933"><path d="M14.5 11.48c0.28 0.09 0.61-0.06 0.74-0.33 0 0 0.17-0.38 0.31-0.84s0.21-0.88 0.21-0.88c0.05-0.29-0.15-0.6-0.43-0.68l-1.45-0.45c-0.28-0.09-0.52-0.36-0.53-0.6s0.1-0.98 0.36-1.11l1.35-0.72c0.26-0.14 0.38-0.47 0.26-0.75l-0.84-1.58c-0.16-0.25-0.51-0.34-0.77-0.2l-1.34 0.72c-0.26 0.14-0.62 0.12-0.79-0.05s-0.62-0.77-0.54-1.05L11.48 1.5c0.09-0.28-0.06-0.61-0.33-0.74 0 0-0.38-0.17-0.84-0.31s-0.88-0.21-0.88-0.21c-0.29-0.05-0.6 0.15-0.68 0.42l-0.45 1.46c-0.09 0.28-0.36 0.52-0.6 0.53s-0.98-0.1-1.12-0.36l-0.71-1.35C5.73 0.68 5.39 0.56 5.12 0.68l-1.58 0.84c-0.25 0.16-0.34 0.51-0.2 0.77l0.72 1.34c0.14 0.26 0.12 0.62-0.05 0.79s-0.77 0.62-1.05 0.54L1.5 4.52c-0.28-0.09-0.61 0.06-0.74 0.33 0 0-0.17 0.38-0.31 0.84s-0.21 0.88-0.21 0.88c-0.05 0.29 0.15 0.6 0.42 0.68l1.46 0.45c0.28 0.09 0.52 0.36 0.53 0.6 0.01 0.24-0.1 0.98-0.36 1.12l-1.35 0.71C0.68 10.27 0.56 10.61 0.68 10.88l0.84 1.58c0.16 0.25 0.51 0.34 0.77 0.2l1.34-0.72c0.26-0.14 0.62-0.12 0.8 0.05s0.62 0.77 0.53 1.05l-0.44 1.46c-0.09 0.28 0.06 0.61 0.33 0.74 0 0 0.38 0.17 0.84 0.32s0.88 0.21 0.88 0.2c0.29 0.05 0.6-0.15 0.68-0.42l0.45-1.46c0.09-0.28 0.36-0.52 0.6-0.53 0.24-0.01 0.98 0.1 1.12 0.36l0.71 1.35c0.14 0.26 0.47 0.38 0.75 0.26l1.58-0.84c0.25-0.16 0.34-0.51 0.2-0.76l-0.72-1.35c-0.14-0.26-0.12-0.62 0.05-0.79 0.16-0.18 0.77-0.62 1.05-0.54l1.46 0.44zM7.15 10.77c-1.53-0.47-2.39-2.08-1.91-3.62 0.47-1.53 2.08-2.39 3.61-1.91S11.23 7.32 10.77 8.85 8.68 11.23 7.15 10.77z"></path></g><g id="SvgjsG2936"><path d="M8.23 8.32l-0.15 0.5c0.49 0.08 0.57-0.36 0.15-0.5l0 0z m-0.31-0.75L8.06 7.13c-0.37-0.05-0.48 0.33-0.14 0.44z"></path><path d="M8.65 6.05c-1.08-0.33-2.22 0.28-2.55 1.36-0.33 1.08 0.28 2.22 1.36 2.55 1.08 0.33 2.22-0.28 2.55-1.36 0.33-1.08-0.28-2.22-1.36-2.55l0 0z m-0.73 3.27l-0.11 0.34-0.48-0.14 0.1-0.36c-0.26-0.13-0.69-0.55-0.54-1.13l0.51 0.15c-0.01 0.16-0.02 0.35 0.19 0.49l0.17-0.58c-0.31-0.14-0.72-0.42-0.56-0.94 0.18-0.58 0.87-0.56 1-0.51l0.11-0.35 0.48 0.15-0.11 0.34c0.32 0.12 0.71 0.53 0.55 1.05l-0.5-0.15c0.03-0.16-0.04-0.34-0.19-0.4l-0.16 0.53c0.37 0.16 0.78 0.44 0.62 0.96-0.14 0.45-0.69 0.64-1.08 0.54l0 0.01z"></path><path d="M-0.8 9.42l15.3 4.68L16.82 6.51 1.52 1.84l-2.32 7.58z m1.88-1L2.52 3.72l12.42 3.79L13.5 12.21 1.08 8.42z"></path></g><g id="SvgjsG2935"><path d="M9.23 5.03l-0.15 0.5c0.49 0.08 0.57-0.36 0.15-0.5z m-0.3-0.75L9.06 3.84c-0.37-0.05-0.48 0.33-0.13 0.44z"></path><path d="M9.66 2.76c-1.08-0.33-2.22 0.28-2.55 1.36-0.33 1.08 0.28 2.22 1.35 2.55 1.08 0.33 2.22-0.28 2.56-1.36 0.33-1.08-0.28-2.22-1.36-2.55z m-0.74 3.27l-0.1 0.34-0.49-0.14 0.11-0.36c-0.26-0.13-0.69-0.55-0.55-1.13l0.51 0.15c-0.01 0.16-0.02 0.35 0.19 0.49l0.18-0.58c-0.31-0.14-0.72-0.42-0.57-0.94 0.18-0.58 0.87-0.56 1.01-0.51l0.11-0.35 0.48 0.15-0.11 0.34c0.32 0.12 0.71 0.53 0.55 1.05l-0.51-0.15c0.03-0.16-0.04-0.34-0.18-0.4l-0.17 0.53c0.37 0.16 0.78 0.44 0.63 0.96-0.14 0.45-0.69 0.64-1.09 0.55z m0.04 5.8c-1.08-0.33-2.22 0.28-2.55 1.36s0.28 2.22 1.36 2.55 2.22-0.28 2.55-1.36c0.33-1.08-0.28-2.22-1.36-2.55zM9.15 14.35l-0.15 0.48-0.61-0.19-0.2 0.67-0.52-0.15L7.88 14.48l-0.65-0.19 0.14-0.47 0.66 0.2-0.4-1.77 0.57 0.17 0.24 1.09 0.86-0.75 0.52 0.16L8.51 14.16l0.64 0.19z m-5.67-6.62c-1.08-0.33-2.22 0.28-2.56 1.36S1.2 11.31 2.28 11.64s2.22-0.28 2.55-1.36-0.28-2.22-1.35-2.55z m-0.43 1.6l-0.14 0.47-0.35-0.11-0.34 1.11L1.72 10.65l0.34-1.11-0.29-0.09 0.14-0.46 0.29 0.09 0.13-0.42c0.05-0.16 0.35-0.6 0.94-0.42 0.6 0.18 0.58 0.7 0.47 1.09l-0.49-0.15c0.08-0.25 0.08-0.4-0.12-0.46-0.22-0.07-0.3 0.07-0.37 0.31l-0.06 0.19 0.35 0.11z m0.99 0.81c-0.42-0.07-0.57 0.11-0.66 0.37l-0.18 0.59-0.49-0.15L3.19 9.37l0.49 0.15-0.07 0.25c0.14-0.09 0.31-0.18 0.57-0.1l-0.14 0.47z"></path><path d="M2.52-1.45l-2.31 7.58 8.98 2.75c-0.11 0.96 0.48 1.89 1.43 2.18s1.96-0.15 2.41-1.01L15.51 10.81 17.83 3.22 2.52-1.45z m8.6 10.17l0.44 0.14-0.13 0.42-0.36-0.11c-0.07 0.4-0.34 0.49-0.39 0.62l1.21 0.37-0.13 0.42L9.95 10.03l0.13-0.42c0.25-0.07 0.46-0.39 0.45-0.6l-0.38-0.12 0.13-0.42 0.31 0.09c-0.02-0.22 0-0.28 0.04-0.46s0.36-0.68 1.1-0.45c0.67 0.21 0.7 0.82 0.57 1.22l-0.51-0.15c0.04-0.25 0-0.48-0.22-0.55-0.34-0.1-0.41 0.11-0.43 0.18s-0.06 0.25-0.02 0.38z m3.39 0.21l-1.33-0.41c-0.19-0.63-0.68-1.16-1.36-1.37S10.44 7.1 9.92 7.52L2.09 5.13 3.53 0.43l12.41 3.8L14.51 8.92z"></path></g><g id="SvgjsG2932"><path d="M-1.27 11.87l14.79 4.52L13.06 17.91-1.73 13.39z m1.05-1.28l13.39 4.09-0.26 0.84L-0.47 11.42z m3.36-7.07l2.24 0.69-2.06 6.75-2.25-0.69z m4.48 1.37l2.25 0.69-2.06 6.75-2.25-0.69z m4.32 1.32l2.25 0.69-2.06 6.75L9.88 12.96zM1.64 1.45L10.34 0.35l6.6 5.78-0.28 0.88L1.36 2.35z"></path></g><g id="SvgjsG2931"><path d="M2 6.05a2.74 2.74 0 0 1-0.07-1.3 0.65 0.65 0 0 1-0.16-0.02 0.64 0.64 0 0 1 0-1.23l2.13-0.69c0.44-0.11 0.91-0.12 1.38 0.01l4.36 1.35 3.34 0.46L13 4.58a0.6 0.6 0 0 1 1.15 0.36c-0.02 0.05-0.04 0.1-0.06 0.14l0.28 0.13c0.32 0.17 0.49 0.55 0.37 0.92-0.01 0.02-0.01 0.04-0.02 0.06l0.79 0.8a0.39 0.39 0 0 1 0.06 0.56l-0.4 0.46a0.78 0.78 0 0 1-0.66 0.18l-2.25-0.41L9.6 9.47l0.53 2.28 0.63 0.57a0.47 0.47 0 0 1-0.5 0.73l-1.41-0.43c-0.37-0.11-0.62-0.41-0.69-0.76l-0.54-2.56-2.74-0.83 0.51 1.78 0.62 0.55a0.46 0.46 0 0 1 0.09 0.45 0.46 0.46 0 0 1-0.57 0.3l-1.43-0.43a1 1 0 0 1-0.67-0.71L2.74 7.89l-1.21 0.61-0.26 0.57 0.25 0.3c0.04 0.04 0.08 0.09 0.11 0.16a0.47 0.47 0 0 1-0.57 0.62L0.43 9.96A0.65 0.65 0 0 1 0.08 9.59l-0.34-1.48a0.99 0.99 0 0 1 0.46-1.03l1.8-1.03z" fill-rule="evenodd"></path></g><g id="SvgjsG2934"><path d="M11.71 2.99L2.38 7.95 1.01 5.36 10.34 0.41z"></path><path d="M7.79 2.93l3.23 0.98L7.29 16.11 4.07 15.12z"></path><path d="M10.33 0.39l4.96 9.33-2.59 1.37-4.96-9.32z"></path></g><g id="SvgjsG2937"><path d="M4.3 13.01L13.63 8.05l1.38 2.59-9.33 4.96z"></path><path d="M8.73-0.1l3.22 0.98-3.73 12.2L5 12.09z"></path><path d="M5.69 15.62L0.72 6.28l2.59-1.37 4.96 9.33z"></path></g><g id="SvgjsG2938"><use xlink:href="#SvgjsG2931" transform="translate(0, 0) scale(2.5)" fill="rgba(207, 8, 8, 0.46)"></use><use xlink:href="#SvgjsG2932" transform="translate(0, 97.5) scale(2.5)" fill="rgba(207, 8, 8, 0.46)"></use><use xlink:href="#SvgjsG2933" transform="translate(0, 195) scale(2.5)" fill="rgba(207, 8, 8, 0.46)"></use><use xlink:href="#SvgjsG2933" transform="translate(0, 292.5) scale(2.5)" fill="rgba(8, 207, 51, 0.34)"></use><use xlink:href="#SvgjsG2934" transform="translate(0, 390) scale(2.5)" fill="rgba(207, 8, 8, 0.46)"></use><use xlink:href="#SvgjsG2935" transform="translate(0, 487.5) scale(2.5)" fill="rgba(207, 8, 8, 0.46)"></use><use xlink:href="#SvgjsG2931" transform="translate(97.5, 0) scale(2.5)" fill="rgba(207, 8, 8, 0.46)"></use><use xlink:href="#SvgjsG2932" transform="translate(97.5, 97.5) scale(2.5)" fill="rgba(8, 207, 51, 0.34)"></use><use xlink:href="#SvgjsG2933" transform="translate(97.5, 195) scale(2.5)" fill="rgba(8, 207, 51, 0.34)"></use><use xlink:href="#SvgjsG2936" transform="translate(97.5, 292.5) scale(2.5)" fill="rgba(8, 207, 51, 0.34)"></use><use xlink:href="#SvgjsG2935" transform="translate(97.5, 390) scale(2.5)" fill="rgba(207, 8, 8, 0.46)"></use><use xlink:href="#SvgjsG2932" transform="translate(97.5, 487.5) scale(2.5)" fill="rgba(8, 207, 51, 0.34)"></use><use xlink:href="#SvgjsG2933" transform="translate(195, 0) scale(2.5)" fill="rgba(8, 207, 51, 0.34)"></use><use xlink:href="#SvgjsG2935" transform="translate(195, 97.5) scale(2.5)" fill="rgba(8, 207, 51, 0.34)"></use><use xlink:href="#SvgjsG2935" transform="translate(195, 195) scale(2.5)" fill="rgba(8, 207, 51, 0.34)"></use><use xlink:href="#SvgjsG2933" transform="translate(195, 292.5) scale(2.5)" fill="rgba(8, 207, 51, 0.34)"></use><use xlink:href="#SvgjsG2932" transform="translate(195, 390) scale(2.5)" fill="rgba(207, 8, 8, 0.46)"></use><use xlink:href="#SvgjsG2937" transform="translate(195, 487.5) scale(2.5)" fill="rgba(207, 8, 8, 0.46)"></use><use xlink:href="#SvgjsG2932" transform="translate(292.5, 0) scale(2.5)" fill="rgba(207, 8, 8, 0.46)"></use><use xlink:href="#SvgjsG2937" transform="translate(292.5, 97.5) scale(2.5)" fill="rgba(207, 8, 8, 0.46)"></use><use xlink:href="#SvgjsG2936" transform="translate(292.5, 195) scale(2.5)" fill="rgba(207, 8, 8, 0.46)"></use><use xlink:href="#SvgjsG2934" transform="translate(292.5, 292.5) scale(2.5)" fill="rgba(8, 207, 51, 0.34)"></use><use xlink:href="#SvgjsG2936" transform="translate(292.5, 390) scale(2.5)" fill="rgba(8, 207, 51, 0.34)"></use><use xlink:href="#SvgjsG2935" transform="translate(292.5, 487.5) scale(2.5)" fill="rgba(8, 207, 51, 0.34)"></use><use xlink:href="#SvgjsG2933" transform="translate(390, 0) scale(2.5)" fill="rgba(8, 207, 51, 0.34)"></use><use xlink:href="#SvgjsG2936" transform="translate(390, 97.5) scale(2.5)" fill="rgba(8, 207, 51, 0.34)"></use><use xlink:href="#SvgjsG2934" transform="translate(390, 195) scale(2.5)" fill="rgba(8, 207, 51, 0.34)"></use><use xlink:href="#SvgjsG2937" transform="translate(390, 292.5) scale(2.5)" fill="rgba(207, 8, 8, 0.46)"></use><use xlink:href="#SvgjsG2932" transform="translate(390, 390) scale(2.5)" fill="rgba(207, 8, 8, 0.46)"></use><use xlink:href="#SvgjsG2934" transform="translate(390, 487.5) scale(2.5)" fill="rgba(8, 207, 51, 0.34)"></use><use xlink:href="#SvgjsG2935" transform="translate(487.5, 0) scale(2.5)" fill="rgba(207, 8, 8, 0.46)"></use><use xlink:href="#SvgjsG2935" transform="translate(487.5, 97.5) scale(2.5)" fill="rgba(8, 207, 51, 0.34)"></use><use xlink:href="#SvgjsG2936" transform="translate(487.5, 195) scale(2.5)" fill="rgba(8, 207, 51, 0.34)"></use><use xlink:href="#SvgjsG2936" transform="translate(487.5, 292.5) scale(2.5)" fill="rgba(207, 8, 8, 0.46)"></use><use xlink:href="#SvgjsG2931" transform="translate(487.5, 390) scale(2.5)" fill="rgba(8, 207, 51, 0.34)"></use><use xlink:href="#SvgjsG2933" transform="translate(487.5, 487.5) scale(2.5)" fill="rgba(207, 8, 8, 0.46)"></use><use xlink:href="#SvgjsG2932" transform="translate(585, 0) scale(2.5)" fill="rgba(207, 8, 8, 0.46)"></use><use xlink:href="#SvgjsG2937" transform="translate(585, 97.5) scale(2.5)" fill="rgba(207, 8, 8, 0.46)"></use><use xlink:href="#SvgjsG2931" transform="translate(585, 195) scale(2.5)" fill="rgba(8, 207, 51, 0.34)"></use><use xlink:href="#SvgjsG2937" transform="translate(585, 292.5) scale(2.5)" fill="rgba(8, 207, 51, 0.34)"></use><use xlink:href="#SvgjsG2935" transform="translate(585, 390) scale(2.5)" fill="rgba(207, 8, 8, 0.46)"></use><use xlink:href="#SvgjsG2933" transform="translate(585, 487.5) scale(2.5)" fill="rgba(207, 8, 8, 0.46)"></use><use xlink:href="#SvgjsG2935" transform="translate(682.5, 0) scale(2.5)" fill="rgba(8, 207, 51, 0.34)"></use><use xlink:href="#SvgjsG2933" transform="translate(682.5, 97.5) scale(2.5)" fill="rgba(207, 8, 8, 0.46)"></use><use xlink:href="#SvgjsG2935" transform="translate(682.5, 195) scale(2.5)" fill="rgba(8, 207, 51, 0.34)"></use><use xlink:href="#SvgjsG2931" transform="translate(682.5, 292.5) scale(2.5)" fill="rgba(207, 8, 8, 0.46)"></use><use xlink:href="#SvgjsG2937" transform="translate(682.5, 390) scale(2.5)" fill="rgba(8, 207, 51, 0.34)"></use><use xlink:href="#SvgjsG2935" transform="translate(682.5, 487.5) scale(2.5)" fill="rgba(207, 8, 8, 0.46)"></use><use xlink:href="#SvgjsG2932" transform="translate(780, 0) scale(2.5)" fill="rgba(8, 207, 51, 0.34)"></use><use xlink:href="#SvgjsG2932" transform="translate(780, 97.5) scale(2.5)" fill="rgba(8, 207, 51, 0.34)"></use><use xlink:href="#SvgjsG2934" transform="translate(780, 195) scale(2.5)" fill="rgba(8, 207, 51, 0.34)"></use><use xlink:href="#SvgjsG2934" transform="translate(780, 292.5) scale(2.5)" fill="rgba(207, 8, 8, 0.46)"></use><use xlink:href="#SvgjsG2937" transform="translate(780, 390) scale(2.5)" fill="rgba(207, 8, 8, 0.46)"></use><use xlink:href="#SvgjsG2935" transform="translate(780, 487.5) scale(2.5)" fill="rgba(8, 207, 51, 0.34)"></use><use xlink:href="#SvgjsG2936" transform="translate(877.5, 0) scale(2.5)" fill="rgba(8, 207, 51, 0.34)"></use><use xlink:href="#SvgjsG2936" transform="translate(877.5, 97.5) scale(2.5)" fill="rgba(8, 207, 51, 0.34)"></use><use xlink:href="#SvgjsG2937" transform="translate(877.5, 195) scale(2.5)" fill="rgba(8, 207, 51, 0.34)"></use><use xlink:href="#SvgjsG2935" transform="translate(877.5, 292.5) scale(2.5)" fill="rgba(8, 207, 51, 0.34)"></use><use xlink:href="#SvgjsG2935" transform="translate(877.5, 390) scale(2.5)" fill="rgba(207, 8, 8, 0.46)"></use><use xlink:href="#SvgjsG2935" transform="translate(877.5, 487.5) scale(2.5)" fill="rgba(8, 207, 51, 0.34)"></use></g></defs></svg>